<svg id="Layer_1" data-name="Layer 1" xmlns="http://www.w3.org/2000/svg" viewBox="0 0 716.23 207.86">
	<defs>
		<style>.cls-1{fill:#cc2327;}.cls-2{fill:#cb2027;}.cls-3{fill:#283c51;}</style>
	</defs>
	<path class="cls-1" d="M413.09,515.55c-.35,10.62-6.45,17.22-15.54,21.5-8.29,3.91-16.85,3.86-25.53,1.18-6.11-1.89-12.2-4-18.45-5.16-15.16-2.85-29.6,0-43.05,7.29-20.07,10.89-32.26,27.8-36.4,50.2-6.53,35.3,16.59,70.49,51.89,79.49a70.5,70.5,0,0,0,85.59-48.64,65.24,65.24,0,0,0,2.54-22.07c-9.3,6.16-18.32,12.06-27.28,18.08S369,629.6,359.78,635.86L310,573.4c10.64-5.18,21.17-4.82,31.92-1.35,11,3.56,17.53,12.21,23.94,21C373.62,588,381,583,388.54,578.14c7.76-5,15.36-10.39,24.36-13,16.41-4.78,31.89-2.93,45.94,7.27,2.55,1.85,4.71,4.24,7.47,6.77-5.57.15-8.85,3-11.46,6.64-4.23,6-6.07,12.82-6.54,19.94-1.89,28.49-12.53,52.88-33.5,72.48a100,100,0,0,1-52.48,26.19c-31.26,5.27-59.62-1.82-84.41-21.74-19.38-15.57-31.78-35.74-36.53-60.15-5.93-30.42.59-58.32,19.24-83.07,16.44-21.82,38.49-35,65.39-39.57,22.57-3.89,44.26-1,64.82,9.46,5.71,2.91,11.56,5.53,18.05,6.18A41.65,41.65,0,0,0,413.09,515.55Z" transform="translate(-239.26 -498.24)"/>
	<path class="cls-2" d="M535.36,638.28c-13.85,0-26-3.77-35.37-11.17l9.82-14.25a39.63,39.63,0,0,0,25.15,8.2c16-.4,17.89-10.36,17.89-17.21v-1.22c-5.25,4.31-12.11,6.6-20.72,6.6-24.2,0-38.86-16.68-38.86-37s14.66-37.12,38.86-37.12c8.61,0,15.47,2.29,20.72,6.59v-5.25h19.9v67.39C572.75,625.09,559,638.28,535.36,638.28Zm18.29-66c0-11.43-8.87-20-20.31-20-12.37,0-20.3,8.74-20.3,20,0,11.57,7.53,20,20.3,20A19.89,19.89,0,0,0,553.65,572.24Z" transform="translate(-239.26 -498.24)"/>
	<path class="cls-2" d="M598.3,528.66A11.11,11.11,0,0,1,587,517.77c0-5.92,5.11-10.76,11.3-10.76a10.83,10.83,0,1,1,0,21.65Zm-10.09,7.94h20.18v73.84H588.21Z" transform="translate(-239.26 -498.24)"/>
	<path class="cls-2" d="M691.77,566.73v43.71H671.19V566.73c0-11.44-6.45-14.93-14.25-14.93-5.52,0-14.53,3.36-14.13,19.5v39.14h-20v-74h20v6.6c5-5,13.18-7.94,19.77-7.94C684,535.12,691.77,547.49,691.77,566.73Z" transform="translate(-239.26 -498.24)"/>
	<path class="cls-2" d="M730.9,584.07c0,4,.14,11,9.15,11a43.44,43.44,0,0,0,5.11-.27v16.95c-2.42.27-6.19.54-9,.54-15.6,0-25.15-2.83-25.15-18.43v-41h-9V535.25h9V515.48h19.9v19.77h14.8v17.62H730.9Z" transform="translate(-239.26 -498.24)"/>
	<path class="cls-2" d="M752.28,573.72c0-30.4,26.36-38.47,40.22-38.47,19,0,37.92,12.92,38.59,36.72,0,5.65-.4,9.28-.4,9.28H772.32c2.42,12.1,16.14,13.45,20.18,13.45a23.83,23.83,0,0,0,19-8.61l15.6,9c-3,4-12.91,17.22-34.56,17.22C778.11,612.32,752.28,604.11,752.28,573.72ZM772.86,567h37c-.81-6.72-7.4-14.12-17.49-14.12C780.79,552.87,773.67,559.46,772.86,567Z" transform="translate(-239.26 -498.24)"/>
	<path class="cls-2" d="M864.85,609.76c0,21.25-10.89,28.11-29.32,28.11a37.86,37.86,0,0,1-8.88-1.34l1.08-17.08a23.56,23.56,0,0,0,7.53,1.34c9.42,0,9.42-6.32,9.42-11V536.6h20.17Zm-10.22-81.1c-6,0-11.3-4.84-11.3-10.89S848.58,507,854.63,507a10.83,10.83,0,1,1,0,21.65Z" transform="translate(-239.26 -498.24)"/>
	<path class="cls-2" d="M935.59,603c-3.09,4.17-12,9-22.46,9-23.4,0-37.12-17.35-37.12-38.6s13.72-38.6,37.12-38.6c10.76,0,18.69,4.3,22.46,9.28v-7.67h19.9v74h-19.9Zm-19.5-50.57c-12.78,0-20.31,8.88-20.31,21,0,11.7,7.93,20.85,20.31,20.85s20.31-7.94,20.31-20.85C936.4,561.21,928.6,552.47,916.09,552.47Z" transform="translate(-239.26 -498.24)"/>
	<path class="cls-3" d="M495,685.54v-22h4.75v22Z" transform="translate(-239.26 -498.24)"/>
	<path class="cls-3" d="M516.11,685.54H511.4V662.87l15.15,13.41V663.59h4.74v22.64L516.11,673Z" transform="translate(-239.26 -498.24)"/>
	<path class="cls-3" d="M551.46,681.69c2.61,0,4.06-1.2,4.06-2.44,0-1.74-2.35-2.19-4.9-2.64-2.77-.45-8.72-1.47-8.72-6.73s4.84-6.65,8.72-6.65a13.42,13.42,0,0,1,8.69,2.95l-2.65,3.61a11,11,0,0,0-6.22-2.26c-1.39,0-3.79.42-3.79,2.16,0,1.57,2.37,1.93,4.36,2.35,3.58.75,9.26,1.2,9.26,7.09,0,4.57-3.55,6.83-8.75,6.83a14.71,14.71,0,0,1-9.92-3.43l2.52-3.64A13.35,13.35,0,0,0,551.46,681.69Z" transform="translate(-239.26 -498.24)"/>
	<path class="cls-3" d="M570.15,676.64v-13h4.75v13a5.08,5.08,0,1,0,10.16,0v-13h4.75v13c0,5.62-3.85,9.29-9.8,9.29S570.15,682.26,570.15,676.64Z" transform="translate(-239.26 -498.24)"/>
	<path class="cls-3" d="M601.11,685.54v-22h9.77c4.72,0,7.93,3.13,7.93,7.64a7.38,7.38,0,0,1-4.48,7c1.9,2.38,3.91,5,5.68,7.37h-5.68c-1.8-2.26-3.45-4.45-5.26-6.86h-3.24v6.86Zm9.77-11a3.2,3.2,0,0,0,3.21-3.36c0-1.14-.42-3.52-3.21-3.52h-5v6.88Z" transform="translate(-239.26 -498.24)"/>
	<path class="cls-3" d="M638.62,662.87l12,22.67h-5.2l-1.74-3.37H633.48l-1.69,3.37h-5.23Zm2.82,15.24-2.82-5.74-2.8,5.74Z" transform="translate(-239.26 -498.24)"/>
	<path class="cls-3" d="M664.22,685.54H659.5V662.87l15.15,13.41V663.59h4.75v22.64L664.22,673Z" transform="translate(-239.26 -498.24)"/>
	<path class="cls-3" d="M701.31,686a11.39,11.39,0,1,1,0-22.76,12.16,12.16,0,0,1,10.43,6l-4.42,1.72a7.65,7.65,0,0,0-6-3.43,7.08,7.08,0,0,0,0,14.16,7.63,7.63,0,0,0,6-3.49l4.42,1.71A12.07,12.07,0,0,1,701.31,686Z" transform="translate(-239.26 -498.24)"/>
	<path class="cls-3" d="M726,672.58h10.53v4.15H726v4.69H738v4.12H721.29v-22H738v4.12H726Z" transform="translate(-239.26 -498.24)"/>
	<path class="cls-3" d="M772.87,681.69c2.61,0,4.06-1.2,4.06-2.44,0-1.74-2.35-2.19-4.9-2.64-2.77-.45-8.72-1.47-8.72-6.73s4.84-6.65,8.72-6.65a13.37,13.37,0,0,1,8.68,2.95l-2.64,3.61a11,11,0,0,0-6.22-2.26c-1.39,0-3.79.42-3.79,2.16,0,1.57,2.37,1.93,4.36,2.35,3.58.75,9.26,1.2,9.26,7.09,0,4.57-3.55,6.83-8.75,6.83a14.71,14.71,0,0,1-9.92-3.43l2.53-3.64A13.28,13.28,0,0,0,772.87,681.69Z" transform="translate(-239.26 -498.24)"/>
	<path class="cls-3" d="M800.43,662.87l12.05,22.67h-5.2l-1.74-3.37H795.29l-1.68,3.37h-5.23Zm2.82,15.24-2.82-5.74-2.8,5.74Z" transform="translate(-239.26 -498.24)"/>
	<path class="cls-3" d="M841.06,685.54h-4.71V677H826v8.54h-4.72v-22H826v9.32h10.31v-9.32h4.71Z" transform="translate(-239.26 -498.24)"/>
	<path class="cls-3" d="M852.87,685.54v-22h4.75v22Z" transform="translate(-239.26 -498.24)"/>
	<path class="cls-3" d="M904.36,685.54h-4.72V677H889.33v8.54h-4.72v-22h4.72v9.32h10.31v-9.32h4.72Z" transform="translate(-239.26 -498.24)"/>
	<path class="cls-3" d="M925.25,662.87l12,22.67h-5.2l-1.74-3.37H920.1l-1.68,3.37h-5.23Zm2.82,15.24-2.82-5.74-2.8,5.74Z" transform="translate(-239.26 -498.24)"/>
	<path class="cls-3" d="M946.67,685.54v-22h4.75v22Z" transform="translate(-239.26 -498.24)"/>
	<text x="-239.26" y="-498.24"/>
</svg>