<svg width="18" height="18" viewBox="0 0 18 18" fill="none" xmlns="http://www.w3.org/2000/svg">
<g clip-path="url(#clip0_783_500)">
<path d="M15.1667 12.7229C14.4489 12.7229 13.8067 12.994 13.3156 13.4187L6.58167 9.66867C6.62889 9.46084 6.66667 9.25301 6.66667 9.03614C6.66667 8.81928 6.62889 8.61145 6.58167 8.40361L13.24 4.68976C13.75 5.14157 14.4206 5.42169 15.1667 5.42169C16.7344 5.42169 18 4.21084 18 2.71084C18 1.21084 16.7344 0 15.1667 0C13.5989 0 12.3333 1.21084 12.3333 2.71084C12.3333 2.92771 12.3711 3.13554 12.4183 3.34337L5.76 7.05723C5.25 6.60542 4.57944 6.3253 3.83333 6.3253C2.26556 6.3253 1 7.53614 1 9.03614C1 10.5361 2.26556 11.747 3.83333 11.747C4.57944 11.747 5.25 11.4669 5.76 11.0151L12.4844 14.7741C12.4372 14.9639 12.4089 15.1627 12.4089 15.3614C12.4089 16.8163 13.6461 18 15.1667 18C16.6872 18 17.9244 16.8163 17.9244 15.3614C17.9244 13.9066 16.6872 12.7229 15.1667 12.7229ZM15.1667 1.80723C15.6861 1.80723 16.1111 2.21386 16.1111 2.71084C16.1111 3.20783 15.6861 3.61446 15.1667 3.61446C14.6472 3.61446 14.2222 3.20783 14.2222 2.71084C14.2222 2.21386 14.6472 1.80723 15.1667 1.80723ZM3.83333 9.93976C3.31389 9.93976 2.88889 9.53313 2.88889 9.03614C2.88889 8.53916 3.31389 8.13253 3.83333 8.13253C4.35278 8.13253 4.77778 8.53916 4.77778 9.03614C4.77778 9.53313 4.35278 9.93976 3.83333 9.93976ZM15.1667 16.2831C14.6472 16.2831 14.2222 15.8765 14.2222 15.3795C14.2222 14.8825 14.6472 14.4759 15.1667 14.4759C15.6861 14.4759 16.1111 14.8825 16.1111 15.3795C16.1111 15.8765 15.6861 16.2831 15.1667 16.2831Z" fill="#CC0001"/>
</g>
<defs>
<clipPath id="clip0_783_500">
<rect width="18" height="18" fill="white"/>
</clipPath>
</defs>
</svg>
